<svg id="03d9b8a1-df56-4487-8a1f-c7a3b0898613" data-name="Capa 8" xmlns="http://www.w3.org/2000/svg" viewBox="0 0 346.02 346"><defs><style>.\36 cd6bf14-c63a-404e-9c17-14862303644b,.\37 a58f0a3-d7be-4dd1-a597-31f1a412ec61{opacity:0.92;}.\31 a431285-b955-4844-b9de-3611f952099b,.\37 a58f0a3-d7be-4dd1-a597-31f1a412ec61,.a73696ca-4bb0-46cb-8ff5-c27556907c55{fill:#fff;}.\37 096c853-be6d-4ac4-a7a9-dc131d3a2873{fill:#e1d9ce;}.\33 ac3795d-773d-43ac-bfbc-cf656b6bc5c5{stroke:#000;stroke-miterlimit:10;stroke-width:36px;}.a73696ca-4bb0-46cb-8ff5-c27556907c55{font-size:70.04px;font-family:PalatinoLinotype-BoldItalic, Palatino Linotype;font-weight:700;font-style:italic;}</style></defs><title>Genius Marketing3</title><polygon class="6cd6bf14-c63a-404e-9c17-14862303644b" points="300.3 56.65 135.04 5.45 8.07 122.96 46.36 291.69 211.62 342.89 338.59 225.37 300.3 56.65"/><polygon class="7a58f0a3-d7be-4dd1-a597-31f1a412ec61" points="86.51 23.17 259.52 23.17 346.02 173 259.52 322.83 86.51 322.83 0 173 86.51 23.17"/><polygon class="7a58f0a3-d7be-4dd1-a597-31f1a412ec61" points="86.51 23.17 259.52 23.17 346.02 173 259.52 322.83 86.51 322.83 0 173 86.51 23.17"/><polygon class="6cd6bf14-c63a-404e-9c17-14862303644b" points="46.04 55.48 211.3 4.28 338.27 121.8 299.99 290.52 134.72 341.72 7.75 224.2 46.04 55.48"/><polygon class="1a431285-b955-4844-b9de-3611f952099b" points="171.01 0 321.83 84.77 323.83 257.77 175.01 346 24.19 261.23 22.19 88.23 171.01 0"/><ellipse cx="173.01" cy="173" rx="129" ry="127"/><path class="7096c853-be6d-4ac4-a7a9-dc131d3a2873" d="M167,272.69l-4.3-9.06c1.67-.91,3.22-1.77,4.79-2.6,11.74-6.16,23.48-12.35,35.26-18.45a2.93,2.93,0,0,0,1.75-3.05c.07-10.15.23-20.3.36-30.45l0-2.71,19,.25H224c0,.53,0,1.49,0,2.67-.18,14.29-.31,28.57-.6,42.86-.05,2.62,1.61,3.9,2.94,5.45.75.87,3.8-.88,3.94-2.15a16.34,16.34,0,0,0,0-1.64l.72-55.74,0-2.92,19.05.25-.68,53.09a53.87,53.87,0,0,0,6-2.59c.58-.33.91-1.64.92-2.51q.44-28.45.77-56.91l0-2.7,19,.24-.69,53.59a62.63,62.63,0,0,0,6.19-2.65c.51-.28.73-1.57.74-2.4q.46-31.38.84-62.77l0-3.34,19,.25-1,80.68c2.41-1.14,4.52-2,6.46-3.15.45-.27.49-1.54.5-2.35q.32-21.9.58-43.8.26-20.26.52-40.52l0-2.81,19,.24-1,80.18,16.2-7.58-4.2-10.13,30.58,3.35L351.79,247l-4.33-10.11-56,26.22c-3.59-4.93-7.15-9.71-10.59-14.59-.89-1.27-1.57-1.58-3.07-.95-17.34,7.31-34.73,14.5-52.08,21.81-1.56.66-2.43.52-3.52-.87-4.55-5.84-9.23-11.58-14-17.48Zm53.73-62.91c-3.62,0-6.95,0-10.26-.17-1.84-.1-2.42.48-2.43,2.45,0,9.84-.26,19.67-.31,29.51a3.09,3.09,0,0,1-1.91,3.19c-12.17,6.32-24.3,12.72-36.44,19.1-.77.41-1.52.86-2.34,1.34l1.48,2.89,40.54-21.27c4.82,6,9.49,11.75,14.06,17.59,1.07,1.37,1.94,1.63,3.53,1,17.34-7.3,34.73-14.5,52.08-21.79,1.5-.63,2.3-.45,3.27.94,3.38,4.83,6.9,9.54,10.46,14.43l56.6-26.5,3.45,7.74L364,223.6l-19.41-2.16,3.25,7.89-23.67,11.07,1.06-82-12.59-.16,0,3.13c-.35,26.93-.76,53.87-1,80.8,0,3.26-.94,4.87-3.79,5.92-3.24,1.2-6.32,2.87-9.86,4.52L299,170.06l-12.68-.16-.94,73a5.8,5.8,0,0,1-2.2-2.25c-.89-1.76-2-1.88-3.64-1.07-2.26,1.11-4.63,2-7.37,3.11l.71-55.22-12.63-.16,0,2.94q-.36,27.75-.74,55.51c0,.83-.22,2.18-.7,2.41-4,1.87-8.18,3.53-12.74,5.44l.71-54.73-12.55-.16,0,3.24q-.34,26.47-.7,52.93c-.07,4.87.78,3.54-3.51,5.42s-4.28,1.75-7.52-2a9,9,0,0,1-2.3-6.69c.29-12.41.38-24.82.54-37.24Z" transform="translate(-76.99 -75)"/><path d="M165.94,271.41l-4.3-9.06c1.67-.91,3.22-1.77,4.79-2.6,11.74-6.16,23.48-12.35,35.26-18.45a2.93,2.93,0,0,0,1.75-3.05c.07-10.15.23-20.3.36-30.45l0-2.71,19.06.25h0l0,2.67c-.18,14.29-.31,28.57-.6,42.86-.05,2.62,1.61,3.9,2.94,5.45.75.87,3.8-.88,3.94-2.15a16.34,16.34,0,0,0,0-1.64l.72-55.74,0-2.92,19.05.25-.68,53.09a53.87,53.87,0,0,0,6-2.59c.58-.33.91-1.64.92-2.51q.44-28.45.77-56.91l0-2.7,19,.24-.69,53.59a62.63,62.63,0,0,0,6.19-2.65c.51-.28.73-1.57.74-2.4q.46-31.38.84-62.77l0-3.34,19,.25-1,80.68c2.41-1.14,4.52-2,6.46-3.15.45-.27.49-1.54.5-2.35q.32-21.9.58-43.8.26-20.26.52-40.52l0-2.81,19,.24-1,80.18,16.2-7.58-4.2-10.13,30.58,3.35-18.11,26.22-4.33-10.11-56,26.22c-3.59-4.93-7.15-9.71-10.59-14.59-.89-1.27-1.57-1.58-3.07-.95-17.34,7.31-34.73,14.5-52.08,21.81-1.56.66-2.43.52-3.52-.87-4.55-5.84-9.23-11.58-14-17.48Zm53.73-62.91c-3.62,0-6.95,0-10.26-.17-1.84-.1-2.42.48-2.43,2.45,0,9.84-.26,19.67-.31,29.51a3.09,3.09,0,0,1-1.91,3.19c-12.17,6.32-24.3,12.72-36.44,19.1-.77.41-1.52.86-2.34,1.34l1.48,2.89L208,245.52c4.82,6,9.49,11.75,14.06,17.59,1.07,1.37,1.94,1.63,3.53,1,17.34-7.3,34.73-14.5,52.08-21.79,1.5-.63,2.3-.45,3.27.94,3.38,4.83,6.9,9.54,10.46,14.43l56.6-26.5,3.45,7.74,11.45-16.57-19.41-2.16,3.25,7.89-23.67,11.07,1.06-82L311.53,157l0,3.13c-.35,26.93-.76,53.87-1,80.8,0,3.26-.94,4.87-3.79,5.92-3.24,1.2-6.32,2.87-9.86,4.52L298,168.78l-12.68-.16-.94,73a5.8,5.8,0,0,1-2.2-2.25c-.89-1.76-2-1.88-3.64-1.07-2.26,1.11-4.63,2-7.37,3.11l.71-55.22L259.22,186l0,2.94q-.36,27.75-.74,55.51c0,.83-.22,2.18-.7,2.41-4,1.87-8.18,3.53-12.74,5.44l.71-54.73-12.55-.16,0,3.24q-.34,26.47-.7,52.93c-.07,4.87.78,3.54-3.51,5.42s-4.28,1.75-7.52-2a9,9,0,0,1-2.3-6.69c.29-12.41.38-24.82.54-37.24Z" transform="translate(-76.99 -75)"/><path d="M164.88,270.12l-4.3-9.06c1.67-.91,3.22-1.77,4.79-2.6,11.74-6.16,23.48-12.35,35.26-18.45a2.93,2.93,0,0,0,1.75-3.05c.07-10.15.23-20.3.36-30.45l0-2.71,19.1.25,0,2.67c-.18,14.29-.31,28.57-.6,42.86-.05,2.62,1.61,3.9,2.94,5.45.75.87,3.8-.88,3.94-2.15a16.34,16.34,0,0,0,0-1.64l.72-55.74,0-2.92,19.05.25-.68,53.09a53.87,53.87,0,0,0,6-2.59c.58-.33.91-1.64.92-2.51q.44-28.45.77-56.91l0-2.7,19,.24L273.32,235a62.63,62.63,0,0,0,6.19-2.65c.51-.28.73-1.57.74-2.4q.46-31.38.84-62.77l0-3.34,19,.25-1,80.68c2.41-1.14,4.52-2,6.46-3.15.45-.27.49-1.54.5-2.35q.32-21.9.58-43.8.26-20.26.52-40.52l0-2.81,19,.24-1,80.18,16.2-7.58-4.2-10.13,30.58,3.35-18.11,26.22-4.33-10.11-56,26.22c-3.59-4.93-7.15-9.71-10.59-14.59-.89-1.27-1.57-1.58-3.07-.95-17.34,7.31-34.73,14.5-52.08,21.81-1.56.66-2.43.52-3.52-.87-4.55-5.84-9.23-11.58-14-17.48Zm53.73-62.91c-3.62,0-6.95,0-10.26-.17-1.84-.1-2.42.48-2.43,2.45,0,9.84-.26,19.67-.31,29.51a3.09,3.09,0,0,1-1.91,3.19c-12.17,6.32-24.3,12.72-36.44,19.1-.77.41-1.52.86-2.34,1.34l1.48,2.89,40.54-21.27c4.82,6,9.49,11.75,14.06,17.59,1.07,1.37,1.94,1.63,3.53,1,17.34-7.3,34.73-14.5,52.08-21.79,1.5-.63,2.3-.45,3.27.94,3.38,4.83,6.9,9.54,10.46,14.43l56.6-26.5,3.45,7.74L361.82,221l-19.41-2.16,3.25,7.89L322,237.82l1.06-82-12.59-.16,0,3.13c-.35,26.93-.76,53.87-1,80.8,0,3.26-.94,4.87-3.79,5.92-3.24,1.2-6.32,2.87-9.86,4.52l1.06-82.58-12.68-.16-.94,73a5.8,5.8,0,0,1-2.2-2.25c-.89-1.76-2-1.88-3.64-1.07-2.26,1.11-4.63,2-7.37,3.11l.71-55.22-12.63-.16,0,2.94q-.36,27.75-.74,55.51c0,.83-.22,2.18-.7,2.41-4,1.87-8.18,3.53-12.74,5.44l.71-54.73-12.55-.16,0,3.24q-.34,26.47-.7,52.93c-.07,4.87.78,3.54-3.51,5.42s-4.28,1.75-7.52-2a9,9,0,0,1-2.3-6.69c.29-12.41.38-24.82.54-37.24Z" transform="translate(-76.99 -75)"/><path class="1a431285-b955-4844-b9de-3611f952099b" d="M163.81,268.84l-4.3-9.06c1.67-.91,3.22-1.77,4.79-2.6,11.74-6.16,23.48-12.35,35.26-18.45a2.93,2.93,0,0,0,1.75-3.05c.07-10.15.23-20.3.36-30.45l0-2.71,19.1.25v0l0,2.63c-.18,14.29-.31,28.57-.6,42.86-.05,2.62,1.61,3.9,2.94,5.45.75.87,3.8-.88,3.94-2.15a16.34,16.34,0,0,0,0-1.64l.72-55.74,0-2.92,19.05.25-.68,53.09a53.88,53.88,0,0,0,6-2.59c.58-.33.91-1.64.92-2.51q.44-28.45.77-56.91l0-2.7,19,.24-.69,53.59a62.63,62.63,0,0,0,6.19-2.65c.51-.28.73-1.57.74-2.4q.46-31.38.84-62.77l0-3.34,19,.25-1,80.68c2.41-1.14,4.52-2,6.46-3.15.45-.27.49-1.54.5-2.35q.32-21.9.58-43.8.26-20.26.52-40.52l0-2.81,19,.24-1,80.18,16.2-7.58-4.2-10.13L366.7,217l-18.11,26.22-4.33-10.11-56,26.22c-3.59-4.93-7.15-9.71-10.59-14.59-.89-1.27-1.57-1.58-3.07-.95-17.34,7.31-34.73,14.5-52.08,21.81-1.56.66-2.43.52-3.52-.87-4.55-5.84-9.23-11.58-14-17.48Zm53.73-62.91c-3.62,0-6.95,0-10.26-.17-1.84-.1-2.42.48-2.43,2.45,0,9.84-.26,19.67-.31,29.51a3.09,3.09,0,0,1-1.91,3.19c-12.17,6.32-24.3,12.72-36.44,19.1-.77.41-1.52.86-2.34,1.34l1.48,2.89L205.87,243c4.82,6,9.49,11.75,14.06,17.59,1.07,1.37,1.94,1.63,3.53,1,17.34-7.3,34.73-14.5,52.08-21.79,1.5-.63,2.3-.45,3.27.94,3.38,4.83,6.9,9.54,10.46,14.43l56.6-26.5,3.45,7.74,11.45-16.57-19.41-2.16,3.25,7.89-23.67,11.07,1.06-82-12.59-.16,0,3.13c-.35,26.93-.76,53.87-1,80.8,0,3.26-.94,4.87-3.79,5.92-3.24,1.2-6.32,2.87-9.86,4.52l1.06-82.58L283.14,166l-.94,73a5.8,5.8,0,0,1-2.2-2.25c-.89-1.76-2-1.88-3.64-1.07-2.26,1.11-4.63,2-7.37,3.11l.71-55.22-12.63-.16,0,2.94q-.36,27.75-.74,55.51c0,.83-.22,2.18-.7,2.41-4,1.87-8.18,3.53-12.74,5.44l.71-54.73L231,194.84l0,3.24q-.34,26.47-.7,52.93c-.07,4.87.78,3.54-3.51,5.42s-4.28,1.75-7.52-2a9,9,0,0,1-2.3-6.69c.29-12.41.38-24.82.54-37.24Z" transform="translate(-76.99 -75)"/><line class="3ac3795d-773d-43ac-bfbc-cf656b6bc5c5" x1="82.01" y1="201" x2="107.01" y2="199"/><text class="a73696ca-4bb0-46cb-8ff5-c27556907c55" transform="translate(61.38 229.62) scale(0.97 1)">Genius</text></svg>